<svg width="30" height="26" viewBox="0 0 30 26" fill="none" xmlns="http://www.w3.org/2000/svg">
<path d="M14.6833 13.8018L12.9818 15.5081C12.874 15.615 12.7371 15.6685 12.5711 15.6685C12.405 15.6685 12.2681 15.615 12.1604 15.5081C12.0535 15.4011 12 15.265 12 15.0997C12 14.9345 12.0535 14.7984 12.1604 14.6914L13.8667 12.9852L12.1604 11.2982C12.0535 11.1904 12 11.0535 12 10.8875C12 10.7214 12.0535 10.5845 12.1604 10.4768C12.2674 10.3699 12.4035 10.3164 12.5687 10.3164C12.734 10.3164 12.8701 10.3699 12.9771 10.4768L14.6833 12.1831L16.3703 10.4768C16.4781 10.3699 16.6149 10.3164 16.781 10.3164C16.9471 10.3164 17.0839 10.3699 17.1917 10.4768C17.3083 10.5935 17.3667 10.7321 17.3667 10.8927C17.3667 11.0534 17.3083 11.1869 17.1917 11.2935L15.4854 12.9852L17.1917 14.6867C17.2986 14.7945 17.3521 14.9314 17.3521 15.0974C17.3521 15.2635 17.2986 15.4004 17.1917 15.5081C17.075 15.6247 16.9366 15.6831 16.7763 15.6831C16.6161 15.6831 16.4823 15.6247 16.375 15.5081L14.6833 13.8018Z" fill="white" fill-opacity="0.33"/>
</svg>
