<svg width="20" height="23" viewBox="0 0 20 23" fill="none" xmlns="http://www.w3.org/2000/svg">
<path opacity="0.5" d="M10.9244 22.2349C14.3978 21.5492 18.8889 19.086 18.8889 12.7172C18.8889 6.92233 14.5856 3.06271 11.4911 1.28952C10.8033 0.895234 10 1.41328 10 2.19638V4.19847C10 5.77781 9.32667 8.66047 7.45556 9.85976C6.5 10.472 5.46667 9.55528 5.35111 8.43814L5.25556 7.52033C5.14444 6.45357 4.04222 5.80628 3.17778 6.45685C1.62333 7.62328 0 9.67138 0 12.7161C0 20.5044 5.87667 22.4528 8.81444 22.4528C8.9863 22.4528 9.16556 22.4473 9.35222 22.4364C9.84778 22.375 9.35222 22.5448 10.9244 22.2338" fill="#C46A4A"/>
<path d="M5.55591 18.5576C5.55591 21.4271 7.90146 22.3142 9.35257 22.4369C9.84813 22.3756 9.35257 22.5453 10.9248 22.2343C12.0792 21.8323 13.3337 20.8006 13.3337 18.5576C13.3337 17.137 12.4237 16.2598 11.7115 15.849C11.4937 15.7231 11.2404 15.8819 11.2215 16.1294C11.1592 16.9158 10.3926 17.5423 9.87146 16.9443C9.41035 16.4164 9.21591 15.6442 9.21591 15.1503V14.5041C9.21591 14.1164 8.81924 13.8579 8.47924 14.0572C7.21702 14.7943 5.55591 16.3123 5.55591 18.5576Z" fill="#C46A4A"/>
</svg>
