<svg width="24" height="24" viewBox="0 0 24 24" fill="none" xmlns="http://www.w3.org/2000/svg">
<path opacity="0.5" d="M13.4104 21.7953C16.7202 21.1515 21 18.8385 21 12.858C21 7.41637 16.8992 3.79206 13.9504 2.12698C13.2949 1.75673 12.5294 2.24319 12.5294 2.97855V4.85858C12.5294 6.34163 11.8878 9.04854 10.1047 10.1747C9.19412 10.7496 8.20941 9.8888 8.09929 8.83977L8.00824 7.97791C7.90235 6.97619 6.852 6.36837 6.02824 6.97927C4.54694 8.07459 3 9.99782 3 12.8569C3 20.1704 8.60012 22 11.3996 22C11.5634 22 11.7342 21.9949 11.9121 21.9846C12.3844 21.927 11.9121 22.0864 13.4104 21.7943" fill="#C46A4A"/>
<path d="M8 18.3267C8 21.0438 10.4126 21.8838 11.9051 22C12.4149 21.9419 11.9051 22.1027 13.5223 21.8081C14.7097 21.4275 16 20.4506 16 18.3267C16 16.9816 15.064 16.1509 14.3314 15.762C14.1074 15.6427 13.8469 15.7931 13.8274 16.0275C13.7634 16.7721 12.9749 17.3653 12.4389 16.799C11.9646 16.2992 11.7646 15.568 11.7646 15.1003V14.4884C11.7646 14.1213 11.3566 13.8765 11.0069 14.0653C9.70857 14.7633 8 16.2006 8 18.3267Z" fill="#C46A4A"/>
</svg>
