<svg width="24" height="24" viewBox="0 0 24 24" fill="none" xmlns="http://www.w3.org/2000/svg">
<path fill-rule="evenodd" clip-rule="evenodd" d="M10.0901 11.9626L19.3631 8.63064L21.0001 7.95164V7.49164C21.0001 6.37164 21.0001 5.43264 20.9121 4.68464C20.9001 4.581 20.8857 4.47764 20.8691 4.37464C20.7841 3.86464 20.6351 3.38664 20.3461 2.98864C20.1668 2.73797 19.9368 2.52776 19.6711 2.37164L19.6611 2.36664C18.8911 1.90564 18.0231 1.93864 17.1291 2.14264C16.2651 2.34064 15.1941 2.74264 13.8801 3.23764L11.5961 4.09664C10.9801 4.32764 10.4581 4.52364 10.0491 4.72664C9.61308 4.94264 9.23808 5.19764 8.95708 5.57764C8.67608 5.95764 8.55808 6.36764 8.50508 6.81164C8.45508 7.22964 8.45508 7.73764 8.45508 8.33664V12.6016L10.0901 11.9626Z" fill="#64ADC8"/>
<path opacity="0.5" d="M8.455 16.1292C7.87351 15.7971 7.2146 15.6246 6.545 15.6292C4.587 15.6292 3 17.0552 3 18.8142C3 20.5732 4.587 21.9992 6.545 21.9992C8.504 21.9992 10.091 20.5732 10.091 18.8142V11.9622L8.455 12.6002V16.1292ZM19.364 8.62917V14.1692C18.7825 13.8371 18.1236 13.6646 17.454 13.6692C15.496 13.6692 13.909 15.0952 13.909 16.8542C13.909 18.6132 15.496 20.0392 17.454 20.0392C19.413 20.0392 21 18.6132 21 16.8542V7.95117L19.364 8.62917Z" fill="#64ADC8"/>
</svg>
