<svg width="24" height="24" viewBox="0 0 24 24" fill="none" xmlns="http://www.w3.org/2000/svg">
<path d="M8.75998 19C8.75998 19.7956 8.45655 20.5587 7.91645 21.1213C7.37635 21.6839 6.64381 22 5.87999 22C5.11617 22 4.38363 21.6839 3.84353 21.1213C3.30343 20.5587 3 19.7956 3 19C3 18.2044 3.30343 17.4413 3.84353 16.8787C4.38363 16.3161 5.11617 16 5.87999 16C6.64381 16 7.37635 16.3161 7.91645 16.8787C8.45655 17.4413 8.75998 18.2044 8.75998 19ZM8.75998 19V8M20.2799 17C20.2799 17.7956 19.9765 18.5587 19.4364 19.1213C18.8963 19.6839 18.1638 20 17.4 20C16.6361 20 15.9036 19.6839 15.3635 19.1213C14.8234 18.5587 14.52 17.7956 14.52 17C14.52 16.2044 14.8234 15.4413 15.3635 14.8787C15.9036 14.3161 16.6361 14 17.4 14C18.1638 14 18.8963 14.3161 19.4364 14.8787C19.9765 15.4413 20.2799 16.2044 20.2799 17Z" stroke="white" stroke-width="1.5"/>
<path d="M19.5601 11.5C19.5601 11.6989 19.6359 11.8897 19.7709 12.0303C19.906 12.171 20.0891 12.25 20.2801 12.25C20.471 12.25 20.6541 12.171 20.7892 12.0303C20.9242 11.8897 21.0001 11.6989 21.0001 11.5H19.5601ZM21.0001 11.5V6H19.5601V11.5H21.0001Z" fill="white"/>
<path d="M15.2256 3.75417L11.3856 5.08717C10.1184 5.52717 9.48481 5.74717 9.12289 6.27117C8.76097 6.79517 8.76001 7.49117 8.76001 8.88117V11.9992L20.28 7.99917V7.54917C20.28 5.01617 20.28 3.74917 19.4832 3.15117C18.6854 2.55217 17.5325 2.95317 15.2256 3.75417Z" stroke="white" stroke-width="1.5" stroke-linecap="round"/>
</svg>
