<svg width="24" height="24" viewBox="0 0 24 24" fill="none" xmlns="http://www.w3.org/2000/svg">
<path fill-rule="evenodd" clip-rule="evenodd" d="M10.0881 11.9626L19.3611 8.63064L20.9981 7.95164V7.49164C20.9981 6.37164 20.9981 5.43264 20.9101 4.68464C20.8981 4.581 20.8838 4.47764 20.8671 4.37464C20.7821 3.86464 20.6331 3.38664 20.3441 2.98864C20.1648 2.73797 19.9349 2.52776 19.6691 2.37164L19.6591 2.36664C18.8891 1.90564 18.0211 1.93864 17.1271 2.14264C16.2631 2.34064 15.1921 2.74264 13.8781 3.23764L11.5941 4.09664C10.9781 4.32764 10.4561 4.52364 10.0471 4.72664C9.61112 4.94264 9.23612 5.19764 8.95512 5.57764C8.67412 5.95764 8.55613 6.36764 8.50313 6.81164C8.45313 7.22964 8.45312 7.73764 8.45312 8.33664V12.6016L10.0881 11.9626Z" fill="white"/>
<path opacity="0.5" d="M8.455 16.1311C7.87351 15.7991 7.2146 15.6266 6.545 15.6311C4.587 15.6311 3 17.0571 3 18.8161C3 20.5751 4.587 22.0011 6.545 22.0011C8.504 22.0011 10.091 20.5751 10.091 18.8161V11.9641L8.455 12.6021V16.1311ZM19.364 8.63112V14.1711C18.7825 13.8391 18.1236 13.6666 17.454 13.6711C15.496 13.6711 13.909 15.0971 13.909 16.8561C13.909 18.6151 15.496 20.0411 17.454 20.0411C19.413 20.0411 21 18.6151 21 16.8561V7.95312L19.364 8.63112Z" fill="white"/>
</svg>
