<svg width="70" height="13" viewBox="0 0 70 13" fill="none" xmlns="http://www.w3.org/2000/svg">
<path d="M3.38818 10.6112C3.38818 12.3627 4.8783 12.9042 5.80018 12.9791C6.11501 12.9416 5.80018 13.0452 6.79901 12.8554C7.53242 12.6101 8.32936 11.9803 8.32936 10.6112C8.32936 9.74418 7.75124 9.20871 7.29877 8.95802C7.16042 8.88115 6.99948 8.97808 6.98748 9.12916C6.94795 9.60914 6.46089 9.99153 6.12983 9.62653C5.83689 9.30431 5.71336 8.83301 5.71336 8.53152V8.1371C5.71336 7.90045 5.46136 7.74269 5.24536 7.86436C4.44348 8.31426 3.38818 9.2408 3.38818 10.6112Z" fill="#FF585F"/>
<path opacity="0.5" d="M6.94024 12.867C9.14682 12.4485 12 10.945 12 7.05769C12 3.52064 9.26612 1.16484 7.30024 0.0825359C6.86329 -0.158125 6.35294 0.158077 6.35294 0.636056V1.85808C6.35294 2.82206 5.92518 4.58155 4.73647 5.31356C4.12941 5.68726 3.47294 5.12772 3.39953 4.44585L3.33882 3.88564C3.26824 3.23452 2.568 2.83944 2.01882 3.23653C1.03129 3.94848 0 5.19858 0 7.05702C0 11.8107 3.73341 13 5.59976 13C5.70894 13 5.82282 12.9967 5.94141 12.99C6.25624 12.9525 5.94141 13.0562 6.94024 12.8663" fill="#FF585F"/>
<path d="M18.322 1.662H20.688V5.008H23.824V1.662H26.19V11H23.824V7.08H20.688V11H18.322V1.662ZM30.8429 1.452C32.1123 1.452 33.1856 1.89067 34.0629 2.768C34.9496 3.67333 35.3929 4.868 35.3929 6.352C35.3929 7.85467 34.9496 9.04933 34.0629 9.936C33.2043 10.8133 32.1309 11.252 30.8429 11.252C29.5269 11.252 28.4303 10.7853 27.5529 9.852C26.6756 8.91867 26.2369 7.752 26.2369 6.352C26.2369 4.952 26.6756 3.78533 27.5529 2.852C28.4303 1.91867 29.5269 1.452 30.8429 1.452ZM30.8429 3.426C30.1803 3.426 29.6576 3.68733 29.2749 4.21C28.8923 4.72333 28.7009 5.43267 28.7009 6.338C28.7009 7.22467 28.8923 7.92933 29.2749 8.452C29.6669 8.96533 30.1896 9.222 30.8429 9.222C31.5056 9.222 32.0283 8.96533 32.4109 8.452C32.8029 7.92933 32.9989 7.22467 32.9989 6.338C32.9989 5.53533 32.8263 4.854 32.4809 4.294C32.0983 3.71533 31.5523 3.426 30.8429 3.426ZM39.4422 11H37.0762V3.636H34.4162V1.662H42.1022V3.636H39.4422V11ZM44.2509 11H41.8849V3.636H39.2249V1.662H46.9109V3.636H44.2509V11ZM47.8914 1.662H50.4674L53.7854 11H51.2374L50.6774 9.278H47.6254L47.0794 11H44.5594L47.8914 1.662ZM50.1874 7.332L49.1794 4.126L48.1574 7.332H50.1874ZM53.73 1.662H56.096V5.176L59.274 1.662H62.298L58.532 5.61L62.522 11H59.568L56.922 7.29L56.096 8.144V11H53.73V1.662ZM62.4565 1.662H69.6525V3.636H64.8225V5.134H69.1625V7.108H64.8225V9.026H69.6525V11H62.4565V1.662Z" fill="white"/>
</svg>
