<svg width="24" height="24" viewBox="0 0 24 24" fill="none" xmlns="http://www.w3.org/2000/svg">
<path opacity="0.5" d="M2 12C2 7.286 2 4.929 3.464 3.464C4.93 2 7.286 2 12 2C16.714 2 19.071 2 20.535 3.464C22 4.93 22 7.286 22 12C22 16.714 22 19.071 20.535 20.535C19.072 22 16.714 22 12 22C7.286 22 4.929 22 3.464 20.535C2 19.072 2 16.714 2 12Z" fill="#6FC392"/>
<path d="M10.5429 7.51711C10.6138 7.44639 10.6697 7.36221 10.7075 7.26953C10.7453 7.17685 10.7642 7.07754 10.763 6.97745C10.7618 6.87736 10.7406 6.77853 10.7006 6.68677C10.6607 6.595 10.6027 6.51217 10.5302 6.44315C10.4577 6.37413 10.3722 6.32032 10.2785 6.28489C10.1849 6.24946 10.0852 6.23312 9.98516 6.23685C9.88513 6.24057 9.78687 6.26428 9.69615 6.30657C9.60543 6.34886 9.52409 6.40889 9.45694 6.48311L7.14294 8.91311L6.54294 8.28311C6.47578 8.20889 6.39444 8.14886 6.30372 8.10657C6.21301 8.06428 6.11474 8.04057 6.01472 8.03685C5.91469 8.03312 5.81494 8.04946 5.72132 8.08489C5.62771 8.12032 5.54214 8.17413 5.46965 8.24315C5.39716 8.31217 5.33922 8.395 5.29924 8.48677C5.25926 8.57853 5.23805 8.67736 5.23687 8.77745C5.23568 8.87754 5.25455 8.97685 5.29234 9.06953C5.33014 9.16221 5.3861 9.24639 5.45694 9.31711L6.59994 10.5171C6.66998 10.5906 6.75423 10.6492 6.84757 10.6891C6.9409 10.7291 7.04139 10.7498 7.14294 10.7498C7.24448 10.7498 7.34497 10.7291 7.43831 10.6891C7.53165 10.6492 7.61589 10.5906 7.68594 10.5171L10.5429 7.51711ZM12.9999 8.25011C12.801 8.25011 12.6103 8.32913 12.4696 8.46978C12.329 8.61043 12.2499 8.8012 12.2499 9.00011C12.2499 9.19902 12.329 9.38979 12.4696 9.53044C12.6103 9.67109 12.801 9.75011 12.9999 9.75011H17.9999C18.1988 9.75011 18.3896 9.67109 18.5303 9.53044C18.6709 9.38979 18.7499 9.19902 18.7499 9.00011C18.7499 8.8012 18.6709 8.61043 18.5303 8.46978C18.3896 8.32913 18.1988 8.25011 17.9999 8.25011H12.9999ZM10.5429 14.5171C10.6138 14.4464 10.6697 14.3622 10.7075 14.2695C10.7453 14.1768 10.7642 14.0775 10.763 13.9775C10.7618 13.8774 10.7406 13.7785 10.7006 13.6868C10.6607 13.595 10.6027 13.5122 10.5302 13.4432C10.4577 13.3741 10.3722 13.3203 10.2785 13.2849C10.1849 13.2495 10.0852 13.2331 9.98516 13.2368C9.88513 13.2406 9.78687 13.2643 9.69615 13.3066C9.60543 13.3489 9.52409 13.4089 9.45694 13.4831L7.14294 15.9131L6.54294 15.2831C6.47578 15.2089 6.39444 15.1489 6.30372 15.1066C6.21301 15.0643 6.11474 15.0406 6.01472 15.0368C5.91469 15.0331 5.81494 15.0495 5.72132 15.0849C5.62771 15.1203 5.54214 15.1741 5.46965 15.2432C5.39716 15.3122 5.33922 15.395 5.29924 15.4868C5.25926 15.5785 5.23805 15.6774 5.23687 15.7775C5.23568 15.8775 5.25455 15.9768 5.29234 16.0695C5.33014 16.1622 5.3861 16.2464 5.45694 16.3171L6.59994 17.5171C6.66998 17.5906 6.75423 17.6492 6.84757 17.6891C6.9409 17.7291 7.04139 17.7498 7.14294 17.7498C7.24448 17.7498 7.34497 17.7291 7.43831 17.6891C7.53165 17.6492 7.61589 17.5906 7.68594 17.5171L10.5429 14.5171ZM12.9999 15.2501C12.801 15.2501 12.6103 15.3291 12.4696 15.4698C12.329 15.6104 12.2499 15.8012 12.2499 16.0001C12.2499 16.199 12.329 16.3898 12.4696 16.5304C12.6103 16.6711 12.801 16.7501 12.9999 16.7501H17.9999C18.1988 16.7501 18.3896 16.6711 18.5303 16.5304C18.6709 16.3898 18.7499 16.199 18.7499 16.0001C18.7499 15.8012 18.6709 15.6104 18.5303 15.4698C18.3896 15.3291 18.1988 15.2501 17.9999 15.2501H12.9999Z" fill="#6FC392"/>
</svg>
