<svg width="24" height="24" viewBox="0 0 24 24" fill="none" xmlns="http://www.w3.org/2000/svg">
<path opacity="0.5" d="M2 12C2 7.286 2 4.929 3.464 3.464C4.93 2 7.286 2 12 2C16.714 2 19.071 2 20.535 3.464C22 4.93 22 7.286 22 12C22 16.714 22 19.071 20.535 20.535C19.072 22 16.714 22 12 22C7.286 22 4.929 22 3.464 20.535C2 19.072 2 16.714 2 12Z" fill="white"/>
<path d="M10.5405 7.51515C10.6113 7.44444 10.6673 7.36026 10.7051 7.26758C10.7429 7.17489 10.7617 7.07558 10.7606 6.9755C10.7594 6.87541 10.7382 6.77657 10.6982 6.68481C10.6582 6.59305 10.6003 6.51022 10.5278 6.4412C10.4553 6.37218 10.3697 6.31837 10.2761 6.28294C10.1825 6.24751 10.0827 6.23117 9.98271 6.23489C9.88269 6.23862 9.78442 6.26232 9.69371 6.30462C9.60299 6.34691 9.52165 6.40694 9.45449 6.48115L7.14049 8.91115L6.5405 8.28115C6.47334 8.20694 6.392 8.14691 6.30128 8.10462C6.21057 8.06232 6.1123 8.03862 6.01228 8.03489C5.91225 8.03117 5.81249 8.04751 5.71888 8.08294C5.62527 8.11837 5.5397 8.17218 5.46721 8.2412C5.39472 8.31022 5.33678 8.39305 5.2968 8.48481C5.25682 8.57657 5.23561 8.67541 5.23443 8.7755C5.23324 8.87558 5.2521 8.97489 5.2899 9.06758C5.32769 9.16026 5.38366 9.24444 5.45449 9.31516L6.59749 10.5152C6.66754 10.5887 6.75179 10.6472 6.84512 10.6872C6.93846 10.7272 7.03895 10.7478 7.14049 10.7478C7.24204 10.7478 7.34253 10.7272 7.43587 10.6872C7.5292 10.6472 7.61345 10.5887 7.68349 10.5152L10.5405 7.51515ZM12.9975 8.24815C12.7986 8.24815 12.6078 8.32717 12.4672 8.46782C12.3265 8.60848 12.2475 8.79924 12.2475 8.99815C12.2475 9.19707 12.3265 9.38783 12.4672 9.52848C12.6078 9.66914 12.7986 9.74815 12.9975 9.74815H17.9975C18.1964 9.74815 18.3872 9.66914 18.5278 9.52848C18.6685 9.38783 18.7475 9.19707 18.7475 8.99815C18.7475 8.79924 18.6685 8.60848 18.5278 8.46782C18.3872 8.32717 18.1964 8.24815 17.9975 8.24815H12.9975ZM10.5405 14.5152C10.6113 14.4444 10.6673 14.3603 10.7051 14.2676C10.7429 14.1749 10.7617 14.0756 10.7606 13.9755C10.7594 13.8754 10.7382 13.7766 10.6982 13.6848C10.6582 13.5931 10.6003 13.5102 10.5278 13.4412C10.4553 13.3722 10.3697 13.3184 10.2761 13.2829C10.1825 13.2475 10.0827 13.2312 9.98271 13.2349C9.88269 13.2386 9.78442 13.2623 9.69371 13.3046C9.60299 13.3469 9.52165 13.4069 9.45449 13.4812L7.14049 15.9112L6.5405 15.2812C6.47334 15.2069 6.392 15.1469 6.30128 15.1046C6.21057 15.0623 6.1123 15.0386 6.01228 15.0349C5.91225 15.0312 5.81249 15.0475 5.71888 15.0829C5.62527 15.1184 5.5397 15.1722 5.46721 15.2412C5.39472 15.3102 5.33678 15.3931 5.2968 15.4848C5.25682 15.5766 5.23561 15.6754 5.23443 15.7755C5.23324 15.8756 5.2521 15.9749 5.2899 16.0676C5.32769 16.1603 5.38366 16.2444 5.45449 16.3152L6.59749 17.5152C6.66754 17.5887 6.75179 17.6472 6.84512 17.6872C6.93846 17.7272 7.03895 17.7478 7.14049 17.7478C7.24204 17.7478 7.34253 17.7272 7.43587 17.6872C7.5292 17.6472 7.61345 17.5887 7.68349 17.5152L10.5405 14.5152ZM12.9975 15.2482C12.7986 15.2482 12.6078 15.3272 12.4672 15.4678C12.3265 15.6085 12.2475 15.7992 12.2475 15.9982C12.2475 16.1971 12.3265 16.3878 12.4672 16.5285C12.6078 16.6691 12.7986 16.7482 12.9975 16.7482H17.9975C18.1964 16.7482 18.3872 16.6691 18.5278 16.5285C18.6685 16.3878 18.7475 16.1971 18.7475 15.9982C18.7475 15.7992 18.6685 15.6085 18.5278 15.4678C18.3872 15.3272 18.1964 15.2482 17.9975 15.2482H12.9975Z" fill="white"/>
</svg>
