<svg width="24" height="24" viewBox="0 0 24 24" fill="none" xmlns="http://www.w3.org/2000/svg">
<path d="M9 18.2661C9 21.1101 11.489 21.8211 12.733 21.8211C13.823 21.8211 16 21.1101 16 18.2661C16 17.1641 15.41 16.4211 14.84 15.9921C14.442 15.6931 13.883 15.9621 13.746 16.4411C13.568 17.0651 12.923 17.4571 12.594 16.8971C12.294 16.3851 12.294 15.6171 12.294 15.1541C12.294 14.5181 11.654 14.1061 11.139 14.4801C10.106 15.2301 9 16.5011 9 18.2661Z" stroke="white" stroke-opacity="0.5" stroke-width="1.5"/>
<path d="M21 12.9321C21 20.0431 14.956 21.8211 11.933 21.8211C9.29 21.8211 4 20.0431 4 12.9321C4 10.1501 5.461 8.28209 6.86 7.21609C7.638 6.62209 8.63 7.21309 8.73 8.18709L8.816 9.02509C8.921 10.0451 9.849 10.8821 10.709 10.3231C12.394 9.22809 13 6.59609 13 5.15409V4.83109C13 3.40109 14.444 2.48109 15.602 3.31909C18.165 5.17109 21 8.40509 21 12.9311V12.9321Z" stroke="#838383" stroke-opacity="0.5" stroke-width="1.5"/>
</svg>
