<svg width="24" height="24" viewBox="0 0 24 24" fill="none" xmlns="http://www.w3.org/2000/svg">
<g clip-path="url(#clip0_514_430)">
<path opacity="0.5" d="M11.9999 22.91C18.0248 22.91 22.909 18.0258 22.909 12.0009C22.909 5.97596 18.0248 1.0918 11.9999 1.0918C5.97499 1.0918 1.09082 5.97596 1.09082 12.0009C1.09082 18.0258 5.97499 22.91 11.9999 22.91Z" stroke="white" stroke-width="1.5"/>
<path d="M9.9541 8.59206C9.95415 8.23385 10.0483 7.88193 10.227 7.57152C10.4058 7.2611 10.663 7.00308 10.9728 6.82326C11.2826 6.64345 11.6342 6.54814 11.9924 6.54689C12.3506 6.54563 12.7029 6.63847 13.0139 6.81611C13.325 6.99375 13.5839 7.24996 13.7649 7.55911C13.9458 7.86826 14.0424 8.21951 14.045 8.57771C14.0475 8.93592 13.956 9.28851 13.7795 9.60021C13.603 9.91192 13.3477 10.1718 13.0392 10.3539C12.521 10.6604 11.9996 11.1262 11.9996 11.7284V13.0921" stroke="white" stroke-width="1.5" stroke-linecap="round"/>
<path d="M12.0001 17.4553C12.6026 17.4553 13.091 16.9668 13.091 16.3643C13.091 15.7619 12.6026 15.2734 12.0001 15.2734C11.3976 15.2734 10.9092 15.7619 10.9092 16.3643C10.9092 16.9668 11.3976 17.4553 12.0001 17.4553Z" fill="white"/>
</g>
<defs>
<clipPath id="clip0_514_430">
<rect width="24" height="24" fill="white"/>
</clipPath>
</defs>
</svg>
