<svg width="24" height="24" viewBox="0 0 24 24" fill="none" xmlns="http://www.w3.org/2000/svg">
<path opacity="0.5" d="M11.5 21C16.1944 21 20 17.1944 20 12.5C20 7.80558 16.1944 4 11.5 4C6.80558 4 3 7.80558 3 12.5C3 17.1944 6.80558 21 11.5 21Z" fill="white"/>
<path d="M13.3399 14.2294C13.5467 14.0682 13.7341 13.8807 14.1097 13.5051L18.7864 8.82816C18.8996 8.71503 18.8481 8.52002 18.697 8.46768C17.966 8.21117 17.3023 7.79303 16.7554 7.24442C16.2065 6.69753 15.7881 6.03382 15.5313 5.30274C15.4798 5.15078 15.2848 5.10013 15.1717 5.21325L10.495 9.89017C10.1194 10.265 9.93195 10.4533 9.77072 10.6601C9.58001 10.9037 9.41667 11.1676 9.28363 11.4469C9.17136 11.6833 9.08694 11.9357 8.91979 12.4388L8.70284 13.0889L8.35758 14.1239L8.03511 15.093C7.99483 15.2144 7.98909 15.3446 8.01852 15.469C8.04795 15.5935 8.11139 15.7073 8.20177 15.7977C8.29214 15.8882 8.40589 15.9518 8.5303 15.9813C8.65471 16.0109 8.78489 16.0053 8.90629 15.9651L9.87708 15.6418L10.9103 15.2973L11.5604 15.0804C12.0643 14.9124 12.3159 14.8288 12.5523 14.7157C12.8325 14.5823 13.0951 14.4202 13.3399 14.2294ZM20.2511 7.3643C20.7305 6.88493 20.9999 6.23473 21 5.55672C21.0001 4.87872 20.7308 4.22845 20.2515 3.74897C19.7721 3.26949 19.122 3.00008 18.444 3C17.766 2.99992 17.1158 3.26918 16.6363 3.74855L16.4852 3.89882C16.4136 3.96931 16.3604 4.05623 16.3301 4.15202C16.2998 4.24781 16.2933 4.34955 16.3113 4.4484C16.3341 4.57503 16.3763 4.76075 16.4532 4.98278C16.6599 5.57544 16.9988 6.11327 17.4442 6.55554C17.8862 7.00085 18.4237 7.33977 19.016 7.54665C19.2381 7.62262 19.4238 7.66568 19.5504 7.68847C19.753 7.72477 19.9556 7.65893 20.1008 7.51372L20.2511 7.3643Z" fill="white"/>
</svg>
