<svg width="24" height="24" viewBox="0 0 24 24" fill="none" xmlns="http://www.w3.org/2000/svg">
<path d="M12.0001 16.2996L8.30006 19.1246C8.11673 19.2746 7.91673 19.3456 7.70006 19.3376C7.4834 19.3296 7.29173 19.2669 7.12506 19.1496C6.9584 19.0323 6.8294 18.8739 6.73806 18.6746C6.64673 18.4753 6.6424 18.2586 6.72506 18.0246L8.15006 13.3996L4.52506 10.8246C4.32506 10.6913 4.20006 10.5163 4.15006 10.2996C4.10006 10.0829 4.1084 9.88295 4.17506 9.69961C4.24173 9.51628 4.3584 9.35361 4.52506 9.21161C4.69173 9.06961 4.89173 8.99895 5.12506 8.99961H9.60006L11.0501 4.19961C11.1334 3.96628 11.2627 3.78695 11.4381 3.66161C11.6134 3.53628 11.8007 3.47395 12.0001 3.47461C12.1994 3.47528 12.3871 3.53795 12.5631 3.66261C12.7391 3.78728 12.8681 3.96628 12.9501 4.19961L14.4001 8.99961H18.8751C19.1084 8.99961 19.3084 9.07062 19.4751 9.21262C19.6417 9.35462 19.7584 9.51695 19.8251 9.69961C19.8917 9.88228 19.9001 10.0823 19.8501 10.2996C19.8001 10.5169 19.6751 10.6919 19.4751 10.8246L15.8501 13.3996L17.2751 18.0246C17.3584 18.2579 17.3544 18.4746 17.2631 18.6746C17.1717 18.8746 17.0424 19.0329 16.8751 19.1496C16.7077 19.2663 16.5161 19.3289 16.3001 19.3376C16.0841 19.3463 15.8841 19.2753 15.7001 19.1246L12.0001 16.2996Z" fill="white"/>
</svg>
